<svg width="291" height="40" viewBox="0 0 291 40" fill="none" xmlns="http://www.w3.org/2000/svg">
<path d="M47.82 36.16V16.112H51.012L51.404 18.1C51.852 17.484 52.44 16.9427 53.168 16.476C53.9147 16.0093 54.876 15.776 56.052 15.776C57.3587 15.776 58.5253 16.0933 59.552 16.728C60.5787 17.3627 61.3907 18.2307 61.988 19.332C62.5853 20.4333 62.884 21.684 62.884 23.084C62.884 24.484 62.5853 25.7347 61.988 26.836C61.3907 27.9187 60.5787 28.7773 59.552 29.412C58.5253 30.028 57.3587 30.336 56.052 30.336C55.0067 30.336 54.092 30.14 53.308 29.748C52.524 29.356 51.8893 28.8053 51.404 28.096V36.16H47.82ZM55.296 27.2C56.4347 27.2 57.3773 26.8173 58.124 26.052C58.8707 25.2867 59.244 24.2973 59.244 23.084C59.244 21.8707 58.8707 20.872 58.124 20.088C57.3773 19.304 56.4347 18.912 55.296 18.912C54.1387 18.912 53.1867 19.304 52.44 20.088C51.712 20.8533 51.348 21.8427 51.348 23.056C51.348 24.2693 51.712 25.268 52.44 26.052C53.1867 26.8173 54.1387 27.2 55.296 27.2ZM66.0856 30V16.112H69.2776L69.6136 18.716C70.1176 17.82 70.799 17.1107 71.6576 16.588C72.535 16.0467 73.5616 15.776 74.7376 15.776V19.556H73.7296C72.9456 19.556 72.2456 19.6773 71.6296 19.92C71.0136 20.1627 70.5283 20.5827 70.1736 21.18C69.8376 21.7773 69.6696 22.608 69.6696 23.672V30H66.0856ZM79.1192 13.956C78.4659 13.956 77.9245 13.76 77.4952 13.368C77.0845 12.976 76.8792 12.4813 76.8792 11.884C76.8792 11.2867 77.0845 10.8013 77.4952 10.428C77.9245 10.036 78.4659 9.84 79.1192 9.84C79.7725 9.84 80.3045 10.036 80.7152 10.428C81.1445 10.8013 81.3592 11.2867 81.3592 11.884C81.3592 12.4813 81.1445 12.976 80.7152 13.368C80.3045 13.76 79.7725 13.956 79.1192 13.956ZM77.3272 30V16.112H80.9112V30H77.3272ZM90.392 30.336C89.16 30.336 88.0774 30.14 87.144 29.748C86.2107 29.3373 85.464 28.7773 84.904 28.068C84.344 27.3587 84.008 26.5373 83.896 25.604H87.508C87.62 26.1453 87.9187 26.612 88.404 27.004C88.908 27.3773 89.552 27.564 90.336 27.564C91.12 27.564 91.6894 27.4053 92.044 27.088C92.4174 26.7707 92.604 26.4067 92.604 25.996C92.604 25.3987 92.3427 24.9973 91.82 24.792C91.2974 24.568 90.5694 24.3533 89.636 24.148C89.0387 24.0173 88.432 23.8587 87.816 23.672C87.2 23.4853 86.6307 23.252 86.108 22.972C85.604 22.6733 85.1934 22.3 84.876 21.852C84.5587 21.3853 84.4 20.816 84.4 20.144C84.4 18.912 84.8854 17.876 85.856 17.036C86.8454 16.196 88.2267 15.776 90 15.776C91.6427 15.776 92.9494 16.1587 93.92 16.924C94.9094 17.6893 95.4974 18.744 95.684 20.088H92.296C92.0907 19.0613 91.316 18.548 89.972 18.548C89.3 18.548 88.7774 18.6787 88.404 18.94C88.0494 19.2013 87.872 19.528 87.872 19.92C87.872 20.3307 88.1427 20.6573 88.684 20.9C89.2254 21.1427 89.944 21.3667 90.84 21.572C91.8107 21.796 92.6974 22.048 93.5 22.328C94.3214 22.5893 94.9747 22.9907 95.46 23.532C95.9454 24.0547 96.188 24.8107 96.188 25.8C96.2067 26.6587 95.9827 27.4333 95.516 28.124C95.0494 28.8147 94.3774 29.356 93.5 29.748C92.6227 30.14 91.5867 30.336 90.392 30.336ZM99.363 30V16.112H102.527L102.835 17.988C103.283 17.316 103.871 16.784 104.599 16.392C105.346 15.9813 106.204 15.776 107.175 15.776C109.322 15.776 110.843 16.6067 111.739 18.268C112.243 17.5027 112.915 16.896 113.755 16.448C114.614 16 115.547 15.776 116.555 15.776C118.366 15.776 119.756 16.3173 120.727 17.4C121.698 18.4827 122.183 20.0693 122.183 22.16V30H118.599V22.496C118.599 21.3013 118.366 20.3867 117.899 19.752C117.451 19.1173 116.751 18.8 115.799 18.8C114.828 18.8 114.044 19.1547 113.447 19.864C112.868 20.5733 112.579 21.5627 112.579 22.832V30H108.995V22.496C108.995 21.3013 108.762 20.3867 108.295 19.752C107.828 19.1173 107.11 18.8 106.139 18.8C105.187 18.8 104.412 19.1547 103.815 19.864C103.236 20.5733 102.947 21.5627 102.947 22.832V30H99.363ZM127.518 13.956C126.864 13.956 126.323 13.76 125.894 13.368C125.483 12.976 125.278 12.4813 125.278 11.884C125.278 11.2867 125.483 10.8013 125.894 10.428C126.323 10.036 126.864 9.84 127.518 9.84C128.171 9.84 128.703 10.036 129.114 10.428C129.543 10.8013 129.758 11.2867 129.758 11.884C129.758 12.4813 129.543 12.976 129.114 13.368C128.703 13.76 128.171 13.956 127.518 13.956ZM125.726 30V16.112H129.31V30H125.726ZM139.854 30.336C138.436 30.336 137.185 30.028 136.102 29.412C135.02 28.796 134.161 27.9373 133.526 26.836C132.91 25.7347 132.602 24.4747 132.602 23.056C132.602 21.6373 132.91 20.3773 133.526 19.276C134.161 18.1747 135.02 17.316 136.102 16.7C137.185 16.084 138.436 15.776 139.854 15.776C141.628 15.776 143.121 16.2427 144.334 17.176C145.548 18.0907 146.322 19.36 146.658 20.984H142.878C142.692 20.312 142.318 19.7893 141.758 19.416C141.217 19.024 140.573 18.828 139.826 18.828C138.837 18.828 137.997 19.2013 137.306 19.948C136.616 20.6947 136.27 21.7307 136.27 23.056C136.27 24.3813 136.616 25.4173 137.306 26.164C137.997 26.9107 138.837 27.284 139.826 27.284C140.573 27.284 141.217 27.0973 141.758 26.724C142.318 26.3507 142.692 25.8187 142.878 25.128H146.658C146.322 26.696 145.548 27.956 144.334 28.908C143.121 29.86 141.628 30.336 139.854 30.336ZM148.664 33.108L155.664 8.244H159.164L152.136 33.108H148.664ZM165.377 30L160.281 16.112H164.033L167.561 26.612L171.089 16.112H174.841L169.717 30H165.377ZM182.309 30.336C180.573 30.336 179.229 29.7947 178.277 28.712C177.344 27.6293 176.877 26.0427 176.877 23.952V16.112H180.433V23.616C180.433 24.8107 180.676 25.7253 181.161 26.36C181.647 26.9947 182.412 27.312 183.457 27.312C184.447 27.312 185.259 26.9573 185.893 26.248C186.547 25.5387 186.873 24.5493 186.873 23.28V16.112H190.457V30H187.293L187.013 27.648C186.584 28.4693 185.959 29.1227 185.137 29.608C184.335 30.0933 183.392 30.336 182.309 30.336ZM200.884 30.336C199.484 30.336 198.243 30.0373 197.16 29.44C196.078 28.8427 195.228 28.0027 194.612 26.92C193.996 25.8373 193.688 24.5867 193.688 23.168C193.688 21.7307 193.987 20.452 194.584 19.332C195.2 18.212 196.04 17.344 197.104 16.728C198.187 16.0933 199.456 15.776 200.912 15.776C202.275 15.776 203.479 16.0747 204.524 16.672C205.57 17.2693 206.382 18.0907 206.96 19.136C207.558 20.1627 207.856 21.3107 207.856 22.58C207.856 22.7853 207.847 23 207.828 23.224C207.828 23.448 207.819 23.6813 207.8 23.924H197.244C197.319 25.0067 197.692 25.856 198.364 26.472C199.055 27.088 199.886 27.396 200.856 27.396C201.584 27.396 202.191 27.2373 202.676 26.92C203.18 26.584 203.554 26.1547 203.796 25.632H207.436C207.175 26.5093 206.736 27.312 206.12 28.04C205.523 28.7493 204.776 29.3093 203.88 29.72C203.003 30.1307 202.004 30.336 200.884 30.336ZM200.912 18.688C200.035 18.688 199.26 18.94 198.588 19.444C197.916 19.9293 197.487 20.676 197.3 21.684H204.216C204.16 20.7693 203.824 20.0413 203.208 19.5C202.592 18.9587 201.827 18.688 200.912 18.688Z" fill="white"/>
<path fill-rule="evenodd" clip-rule="evenodd" d="M33.6372 20.6997L31.1237 18.1862C30.9244 17.9869 30.8125 17.7167 30.8125 17.4349V14.3599C30.8125 11.5182 30.5166 10.4877 29.961 9.4488C29.4054 8.40992 28.59 7.59459 27.5512 7.03899C26.5123 6.48338 25.4818 6.1875 22.6401 6.1875H18.5755C18.4581 6.1875 18.363 6.09236 18.363 5.975C18.363 5.91864 18.3854 5.86459 18.4252 5.82474L20.9388 3.3112C21.138 3.11194 21.4083 3 21.6901 3L23.1034 3C26.8924 3 28.2664 3.39451 29.6516 4.13531C31.0367 4.87612 32.1238 5.96322 32.8646 7.34841C33.6055 8.73359 34 10.1076 34 13.8965V20.5495C34 20.6668 33.9048 20.762 33.7875 20.762C33.7311 20.762 33.6771 20.7396 33.6372 20.6997Z" fill="#E55737"/>
<path fill-rule="evenodd" clip-rule="evenodd" d="M16.3002 36.6372L18.8138 34.1237C19.013 33.9244 19.2833 33.8125 19.5651 33.8125H22.6401C25.4818 33.8125 26.5123 33.5166 27.5511 32.961C28.59 32.4054 29.4054 31.5901 29.961 30.5512C30.5166 29.5123 30.8124 28.4818 30.8124 25.6401V21.5755C30.8124 21.4582 30.9076 21.363 31.0249 21.363C31.0813 21.363 31.1354 21.3854 31.1752 21.4253L33.6887 23.9388C33.888 24.1381 33.9999 24.4083 33.9999 24.6901V26.1035C33.9999 29.8924 33.6054 31.2664 32.8646 32.6516C32.1238 34.0368 31.0367 35.1239 29.6515 35.8647C28.2664 36.6055 26.8924 37 23.1034 37H16.4505C16.3331 37 16.238 36.9049 16.238 36.7875C16.238 36.7311 16.2604 36.6771 16.3002 36.6372Z" fill="#F6C943"/>
<path fill-rule="evenodd" clip-rule="evenodd" d="M0.36276 19.3003L2.8763 21.8138C3.07556 22.0131 3.1875 22.2833 3.1875 22.5651V25.6401C3.1875 28.4818 3.48338 29.5123 4.03899 30.5512C4.59459 31.5901 5.40992 32.4054 6.4488 32.961C7.48769 33.5166 8.51817 33.8125 11.3599 33.8125H15.4245C15.5418 33.8125 15.637 33.9076 15.637 34.025C15.637 34.0814 15.6146 34.1354 15.5747 34.1753L13.0612 36.6888C12.8619 36.8881 12.5917 37 12.3099 37H10.8965C7.10756 37 5.73359 36.6055 4.34841 35.8647C2.96322 35.1239 1.87612 34.0368 1.13531 32.6516C0.394509 31.2664 0 29.8924 0 26.1035V19.4505C0 19.3332 0.0951395 19.238 0.2125 19.238C0.268858 19.238 0.322909 19.2604 0.36276 19.3003Z" fill="#7B8FEC"/>
<path fill-rule="evenodd" clip-rule="evenodd" d="M17.6997 3.36276L15.1862 5.8763C14.9869 6.07556 14.7167 6.1875 14.4349 6.1875H11.3599C8.51817 6.1875 7.48769 6.48338 6.4488 7.03899C5.40992 7.59459 4.59459 8.40992 4.03899 9.4488C3.48338 10.4877 3.1875 11.5182 3.1875 14.3599V18.4245C3.1875 18.5418 3.09236 18.637 2.975 18.637C2.91864 18.637 2.86459 18.6146 2.82474 18.5747L0.311199 16.0612C0.111942 15.8619 0 15.5917 0 15.3099L0 13.8965C0 10.1076 0.394509 8.73359 1.13531 7.34841C1.87612 5.96322 2.96322 4.87612 4.34841 4.13531C5.73359 3.39451 7.10756 3 10.8965 3L17.5495 3C17.6668 3 17.762 3.09514 17.762 3.2125C17.762 3.26886 17.7396 3.32291 17.6997 3.36276Z" fill="#D77EE9"/>
<path fill-rule="evenodd" clip-rule="evenodd" d="M28.3282 15.4066L24.9008 12.1309C24.6741 11.9043 24.409 11.7395 24.1265 11.6367C23.8928 11.5483 23.6396 11.5 23.375 11.5H13.2607C13.1433 11.5 13.0482 11.4049 13.0482 11.2875C13.0482 11.2311 13.0706 11.177 13.1105 11.1372L15.6264 8.62338C15.8256 8.42432 16.0957 8.3125 16.3774 8.3125H24.4375C26.7847 8.3125 28.6875 10.2153 28.6875 12.5625V15.253C28.6875 15.3703 28.5924 15.4655 28.475 15.4655C28.4203 15.4655 28.3677 15.4444 28.3282 15.4066Z" fill="#E55737"/>
<path fill-rule="evenodd" clip-rule="evenodd" d="M21.5934 31.3309L24.869 27.9034C25.0957 27.6768 25.2604 27.4117 25.3633 27.1291C25.4516 26.8955 25.5 26.6422 25.5 26.3777V16.2633C25.5 16.146 25.5951 16.0508 25.7125 16.0508C25.7689 16.0508 25.8229 16.0732 25.8628 16.1131L28.3766 18.629C28.5757 18.8283 28.6875 19.0984 28.6875 19.38V27.4402C28.6875 29.7874 26.7847 31.6902 24.4375 31.6902H21.747C21.6296 31.6902 21.5345 31.595 21.5345 31.4777C21.5345 31.423 21.5556 31.3704 21.5934 31.3309Z" fill="#F6C943"/>
<path fill-rule="evenodd" clip-rule="evenodd" d="M5.67182 24.5934L9.09925 27.8691C9.32589 28.0957 9.59099 28.2605 9.87355 28.3633C10.1072 28.4517 10.3604 28.5 10.625 28.5H20.7394C20.8567 28.5 20.9519 28.5951 20.9519 28.7125C20.9519 28.7689 20.9294 28.823 20.8896 28.8628L18.3736 31.3766C18.1744 31.5757 17.9043 31.6875 17.6227 31.6875H9.5625C7.21529 31.6875 5.3125 29.7847 5.3125 27.4375V24.747C5.3125 24.6297 5.40764 24.5345 5.525 24.5345C5.57969 24.5345 5.63228 24.5556 5.67182 24.5934Z" fill="#7B8FEC"/>
<path fill-rule="evenodd" clip-rule="evenodd" d="M12.4066 8.67182L9.13092 12.0992C8.90428 12.3259 8.73953 12.591 8.63669 12.8735C8.54835 13.1072 8.5 13.3604 8.5 13.625V23.7394C8.5 23.8567 8.40486 23.9519 8.2875 23.9519C8.23111 23.9519 8.17703 23.9294 8.13718 23.8896L5.62338 21.3736C5.42432 21.1744 5.3125 20.9043 5.3125 20.6227V12.5625C5.3125 10.2153 7.21529 8.3125 9.5625 8.3125H12.253C12.3703 8.3125 12.4655 8.40764 12.4655 8.525C12.4655 8.57969 12.4444 8.63228 12.4066 8.67182Z" fill="#D77EE9"/>
<path d="M213.794 14L210.21 4.2H212.128L214.9 12.166L217.686 4.2H219.576L215.992 14H213.794ZM223.221 14.168C222.353 14.168 221.681 13.8973 221.205 13.356C220.738 12.8147 220.505 12.0213 220.505 10.976V7.056H222.283V10.808C222.283 11.4053 222.404 11.8627 222.647 12.18C222.89 12.4973 223.272 12.656 223.795 12.656C224.29 12.656 224.696 12.4787 225.013 12.124C225.34 11.7693 225.503 11.2747 225.503 10.64V7.056H227.295V14H225.713L225.573 12.824C225.358 13.2347 225.046 13.5613 224.635 13.804C224.234 14.0467 223.762 14.168 223.221 14.168ZM232.509 14.168C231.809 14.168 231.188 14.0187 230.647 13.72C230.105 13.4213 229.681 13.0013 229.373 12.46C229.065 11.9187 228.911 11.2933 228.911 10.584C228.911 9.86533 229.06 9.226 229.359 8.666C229.667 8.106 230.087 7.672 230.619 7.364C231.16 7.04667 231.795 6.888 232.523 6.888C233.204 6.888 233.806 7.03733 234.329 7.336C234.851 7.63467 235.257 8.04533 235.547 8.568C235.845 9.08133 235.995 9.65533 235.995 10.29C235.995 10.3927 235.99 10.5 235.981 10.612C235.981 10.724 235.976 10.8407 235.967 10.962H230.689C230.726 11.5033 230.913 11.928 231.249 12.236C231.594 12.544 232.009 12.698 232.495 12.698C232.859 12.698 233.162 12.6187 233.405 12.46C233.657 12.292 233.843 12.0773 233.965 11.816H235.785C235.654 12.2547 235.435 12.656 235.127 13.02C234.828 13.3747 234.455 13.6547 234.007 13.86C233.568 14.0653 233.069 14.168 232.509 14.168ZM232.523 8.344C232.084 8.344 231.697 8.47 231.361 8.722C231.025 8.96467 230.81 9.338 230.717 9.842H234.175C234.147 9.38467 233.979 9.02067 233.671 8.75C233.363 8.47933 232.98 8.344 232.523 8.344ZM244.086 14.168C243.442 14.168 242.858 14.056 242.336 13.832C241.813 13.5987 241.393 13.244 241.076 12.768C240.758 12.292 240.59 11.6947 240.572 10.976H242.336C242.345 11.452 242.499 11.8533 242.798 12.18C243.106 12.4973 243.535 12.656 244.086 12.656C244.608 12.656 245.01 12.5113 245.29 12.222C245.57 11.9327 245.71 11.5687 245.71 11.13C245.71 10.6167 245.523 10.2293 245.15 9.968C244.786 9.69733 244.314 9.562 243.736 9.562H243.008V8.092H243.75C244.226 8.092 244.622 7.98 244.94 7.756C245.257 7.532 245.416 7.20067 245.416 6.762C245.416 6.398 245.294 6.10867 245.052 5.894C244.818 5.67 244.492 5.558 244.072 5.558C243.614 5.558 243.255 5.69333 242.994 5.964C242.742 6.23467 242.602 6.566 242.574 6.958H240.824C240.861 6.05267 241.174 5.33867 241.762 4.816C242.359 4.29333 243.129 4.032 244.072 4.032C244.744 4.032 245.308 4.15333 245.766 4.396C246.232 4.62933 246.582 4.942 246.816 5.334C247.058 5.726 247.18 6.16 247.18 6.636C247.18 7.18667 247.026 7.65333 246.718 8.036C246.419 8.40933 246.046 8.66133 245.598 8.792C246.148 8.904 246.596 9.17467 246.942 9.604C247.287 10.024 247.46 10.556 247.46 11.2C247.46 11.7413 247.329 12.236 247.068 12.684C246.806 13.132 246.424 13.4913 245.92 13.762C245.425 14.0327 244.814 14.168 244.086 14.168ZM251.926 14L255.51 4.2H257.526L261.11 14H259.206L258.422 11.732H254.6L253.802 14H251.926ZM255.09 10.332H257.932L256.504 6.258L255.09 10.332ZM262.33 14V3.92H264.122V14H262.33ZM265.953 17.08V7.056H267.549L267.745 8.05C267.969 7.742 268.263 7.47133 268.627 7.238C269 7.00467 269.481 6.888 270.069 6.888C270.722 6.888 271.306 7.04667 271.819 7.364C272.332 7.68133 272.738 8.11533 273.037 8.666C273.336 9.21667 273.485 9.842 273.485 10.542C273.485 11.242 273.336 11.8673 273.037 12.418C272.738 12.9593 272.332 13.3887 271.819 13.706C271.306 14.014 270.722 14.168 270.069 14.168C269.546 14.168 269.089 14.07 268.697 13.874C268.305 13.678 267.988 13.4027 267.745 13.048V17.08H265.953ZM269.691 12.6C270.26 12.6 270.732 12.4087 271.105 12.026C271.478 11.6433 271.665 11.1487 271.665 10.542C271.665 9.93533 271.478 9.436 271.105 9.044C270.732 8.652 270.26 8.456 269.691 8.456C269.112 8.456 268.636 8.652 268.263 9.044C267.899 9.42667 267.717 9.92133 267.717 10.528C267.717 11.1347 267.899 11.634 268.263 12.026C268.636 12.4087 269.112 12.6 269.691 12.6ZM275.086 14V3.92H276.878V8.12C277.111 7.73733 277.424 7.43867 277.816 7.224C278.217 7 278.674 6.888 279.188 6.888C280.046 6.888 280.709 7.15867 281.176 7.7C281.652 8.24133 281.89 9.03467 281.89 10.08V14H280.112V10.248C280.112 9.65067 279.99 9.19333 279.748 8.876C279.514 8.55867 279.141 8.4 278.628 8.4C278.124 8.4 277.704 8.57733 277.368 8.932C277.041 9.28667 276.878 9.78133 276.878 10.416V14H275.086ZM285.997 14.168C285.4 14.168 284.91 14.0747 284.527 13.888C284.145 13.692 283.86 13.4353 283.673 13.118C283.487 12.8007 283.393 12.4507 283.393 12.068C283.393 11.424 283.645 10.9013 284.149 10.5C284.653 10.0987 285.409 9.898 286.417 9.898H288.181V9.73C288.181 9.254 288.046 8.904 287.775 8.68C287.505 8.456 287.169 8.344 286.767 8.344C286.403 8.344 286.086 8.43267 285.815 8.61C285.545 8.778 285.377 9.03 285.311 9.366H283.561C283.608 8.862 283.776 8.42333 284.065 8.05C284.364 7.67667 284.747 7.392 285.213 7.196C285.68 6.99067 286.203 6.888 286.781 6.888C287.771 6.888 288.55 7.13533 289.119 7.63C289.689 8.12467 289.973 8.82467 289.973 9.73V14H288.447L288.279 12.88C288.074 13.2533 287.785 13.5613 287.411 13.804C287.047 14.0467 286.576 14.168 285.997 14.168ZM286.403 12.768C286.917 12.768 287.313 12.6 287.593 12.264C287.883 11.928 288.065 11.5127 288.139 11.018H286.613C286.137 11.018 285.797 11.1067 285.591 11.284C285.386 11.452 285.283 11.662 285.283 11.914C285.283 12.1847 285.386 12.3947 285.591 12.544C285.797 12.6933 286.067 12.768 286.403 12.768Z" fill="white"/>
</svg>
